# File created by Blade
# Date/Time:  Tue Apr 07 20:13:55 2015
# Frame Rate: 120.000 fps
#------------------------------------------------------
:FULLY-SPECIFIED
:DEGREES
2657
root 0.460756 32.491168 -6.789793 10.155190 -1.198996 -5.737785
Spine 27.910603 -25.323788 9.091523
Head -13.773554 15.454377 -16.128376
LeftShoulder 2.726443 35.237364 16.640026
LeftArm 67.414508 18.178040 -71.680244
LeftForeArm -53.236146 -0.000000 15.209208
LeftHand -1.088561 -0.000000 -15.453088
LeftHandThumb1 -26.253704 0.000000 33.147579
RightShoulder 7.606967 2.361758 -19.032576
RightArm 31.568157 -26.306067 75.306871
RightForeArm 25.510463 -0.000000 34.651687
RightHand 5.969745 0.000000 -6.367067
RightHandThumb1 -24.326973 -0.000000 -32.862282
LeftUpLeg -11.998645 9.911952 -4.601968
LeftLeg 11.622877 -0.000000 -0.000000
LeftFoot -19.817245 19.840152 -12.650642
LeftToeBase -11.059205 -0.000000 0.000000
RightUpLeg -74.953305 -4.684803 11.956363
RightLeg 52.796620 -0.000000 -0.000000
RightFoot 39.195941 -7.993969 1.038747
RightToeBase 17.421520 -0.000000 -0.000000
2658
root 0.398903 32.460876 -6.567286 10.418572 -0.672285 -5.185914
Spine 27.222223 -25.160651 8.730121
Head -12.775316 15.082576 -15.562282
LeftShoulder 2.283757 35.936970 16.394837
LeftArm 67.147787 18.079896 -71.291118
LeftForeArm -53.126159 -0.000000 14.314518
LeftHand -0.824800 -0.000000 -15.607977
LeftHandThumb1 -26.253704 0.000000 33.147579
RightShoulder 7.103377 1.453911 -18.733811
RightArm 30.578521 -25.810285 75.478965
RightForeArm 25.669191 0.000000 34.447198
RightHand 5.907522 -0.000000 -6.625240
RightHandThumb1 -24.326973 -0.000000 -32.862282
LeftUpLeg -11.807016 9.734512 -4.999632
LeftLeg 11.491912 -0.000000 -0.000000
LeftFoot -20.001386 19.655362 -12.483152
LeftToeBase -10.726536 -0.000000 0.000000
RightUpLeg -72.533099 -4.856159 10.786892
RightLeg 50.056920 -0.000000 -0.000000
RightFoot 38.739295 -8.112476 1.262320
RightToeBase 15.741717 -0.000000 -0.000000
2659
root 0.355793 32.427068 -6.341207 10.735047 0.192052 -4.545083
Spine 26.385387 -25.325671 8.490839
Head -11.777691 14.636338 -15.116013
LeftShoulder 1.852380 36.620155 16.157781
LeftArm 66.809573 18.011694 -70.820506
LeftForeArm -53.840475 0.000000 13.797266
LeftHand -1.017749 -0.000000 -16.216326
LeftHandThumb1 -26.253704 0.000000 33.147579
RightShoulder 6.548623 0.605974 -18.577208
RightArm 29.577409 -25.458386 75.536008
RightForeArm 25.860522 -0.000000 34.388052
RightHand 5.853075 -0.000000 -6.430132
RightHandThumb1 -24.326973 -0.000000 -32.862282
LeftUpLeg -11.660609 9.048796 -5.444865
LeftLeg 11.386515 -0.000000 -0.000000
LeftFoot -20.176019 19.560410 -12.476264
LeftToeBase -10.616596 -0.000000 0.000000
RightUpLeg -70.230837 -5.361854 9.538772
RightLeg 47.407547 -0.000000 -0.000000
RightFoot 38.388473 -7.800672 1.343654
RightToeBase 14.027100 -0.000000 -0.000000
2660
root 0.310580 32.386822 -6.108005 11.104274 0.983263 -3.859982
Spine 25.465502 -25.310667 8.247711
Head -10.738278 14.104322 -14.593284
LeftShoulder 1.441894 37.245889 15.993915
LeftArm 66.414568 18.032508 -70.299897
LeftForeArm -54.189422 -0.000000 13.551564
LeftHand -1.192075 -0.000000 -16.671208
LeftHandThumb1 -26.253704 0.000000 33.147579
RightShoulder 5.877228 -0.301557 -18.417066
RightArm 28.660477 -25.293346 75.443268
RightForeArm 25.826644 -0.000000 34.343660
RightHand 5.918703 -0.000000 -6.314867
RightHandThumb1 -24.326973 -0.000000 -32.862282
LeftUpLeg -11.558308 8.405353 -5.932124
LeftLeg 11.336636 -0.000000 -0.000000
LeftFoot -20.411345 19.472227 -12.480548
LeftToeBase -10.541037 -0.000000 0.000000
RightUpLeg -67.931370 -5.786658 8.259437
RightLeg 44.742222 -0.000000 -0.000000
RightFoot 38.172448 -7.242218 1.244210
RightToeBase 12.796572 -0.000000 -0.000000
